<?xml version="1.0" encoding="utf-8"?>
<!-- Generator: Adobe Illustrator 16.0.0, SVG Export Plug-In . SVG Version: 6.00 Build 0)  -->
<!DOCTYPE svg PUBLIC "-//W3C//DTD SVG 1.1//EN" "http://www.w3.org/Graphics/SVG/1.1/DTD/svg11.dtd">
<svg version="1.1" id="Layer_1" xmlns="http://www.w3.org/2000/svg" xmlns:xlink="http://www.w3.org/1999/xlink" x="0px" y="0px"
	 width="272.85px" height="145.229px" viewBox="0 0 272.85 145.229" enable-background="new 0 0 272.85 145.229"
	 xml:space="preserve">
<path fill="#150958" d="M9.312,104.889h2.779v4.879c0,0.618-0.113,1.194-0.339,1.729c-0.228,0.536-0.541,1.004-0.942,1.406
	s-0.875,0.721-1.42,0.958c-0.546,0.236-1.128,0.355-1.746,0.355H5.791c-0.617,0-1.194-0.119-1.729-0.355
	c-0.535-0.237-1.003-0.556-1.405-0.958c-0.4-0.401-0.721-0.87-0.957-1.406c-0.236-0.535-0.354-1.111-0.354-1.729V93.463
	c0-0.618,0.118-1.199,0.354-1.745c0.236-0.545,0.557-1.019,0.957-1.42c0.402-0.401,0.87-0.715,1.405-0.942
	c0.535-0.226,1.112-0.339,1.729-0.339h1.853c0.618,0,1.2,0.113,1.746,0.339c0.545,0.228,1.019,0.541,1.42,0.942
	s0.715,0.875,0.942,1.42c0.226,0.546,0.339,1.127,0.339,1.745v3.891H9.312v-3.891c0-0.494-0.154-0.896-0.463-1.205
	s-0.71-0.463-1.205-0.463H5.791c-0.494,0-0.896,0.154-1.204,0.463s-0.463,0.71-0.463,1.205v16.305c0,0.494,0.154,0.896,0.463,1.205
	s0.71,0.463,1.204,0.463h1.853c0.412,0,0.727-0.041,0.942-0.123c0.217-0.082,0.371-0.196,0.464-0.34
	c0.092-0.144,0.148-0.318,0.169-0.524s0.031-0.433,0.031-0.68v-4.879H9.312z M24.989,109.768c0,0.618-0.113,1.194-0.339,1.729
	c-0.228,0.536-0.541,1.004-0.942,1.406s-0.875,0.721-1.42,0.958c-0.546,0.236-1.127,0.355-1.745,0.355h-1.854
	c-0.617,0-1.194-0.119-1.729-0.355c-0.535-0.237-1.003-0.556-1.404-0.958s-0.721-0.87-0.958-1.406
	c-0.236-0.535-0.354-1.111-0.354-1.729V93.463c0-0.618,0.118-1.199,0.354-1.745c0.237-0.545,0.557-1.019,0.958-1.42
	s0.869-0.715,1.404-0.942c0.535-0.226,1.112-0.339,1.729-0.339h1.854c0.618,0,1.199,0.113,1.745,0.339
	c0.545,0.228,1.019,0.541,1.42,0.942s0.715,0.875,0.942,1.42c0.226,0.546,0.339,1.127,0.339,1.745V109.768z M22.21,93.463
	c0-0.494-0.154-0.896-0.463-1.205s-0.71-0.463-1.204-0.463h-1.854c-0.493,0-0.896,0.154-1.204,0.463s-0.463,0.71-0.463,1.205v16.305
	c0,0.494,0.154,0.896,0.463,1.205s0.711,0.463,1.204,0.463h1.854c0.494,0,0.896-0.154,1.204-0.463s0.463-0.71,0.463-1.205V93.463z
	 M36.984,89.202h2.778l-3.983,23.964c-0.041,0.247-0.19,0.483-0.447,0.71c-0.258,0.226-0.552,0.339-0.881,0.339h-2.748
	c-0.33,0-0.623-0.108-0.88-0.324c-0.258-0.216-0.406-0.458-0.448-0.726l-4.107-23.964h2.842l3.613,21.833
	c0,0.062,0.02,0.124,0.062,0.185c0.041,0.042,0.077,0.088,0.107,0.139c0.032,0.052,0.077,0.077,0.14,0.077h0.093
	c0.124,0,0.2-0.051,0.231-0.154c0.03-0.103,0.057-0.185,0.077-0.247L36.984,89.202z M47.971,90.066
	c-0.041-0.267-0.19-0.509-0.447-0.726c-0.258-0.216-0.552-0.324-0.881-0.324h-2.748c-0.329,0-0.623,0.113-0.88,0.339
	c-0.258,0.228-0.407,0.464-0.448,0.71l-3.983,23.84h2.779l3.551-21.71c0.021-0.062,0.047-0.143,0.077-0.246
	c0.031-0.103,0.108-0.154,0.232-0.154h0.092c0.083,0,0.165,0.062,0.247,0.185c0.042,0.062,0.062,0.134,0.062,0.216l3.645,21.71
	h2.779L47.971,90.066z M206.829,90.066c-0.041-0.267-0.19-0.509-0.448-0.726c-0.257-0.216-0.551-0.324-0.88-0.324h-2.748
	c-0.33,0-0.623,0.113-0.88,0.339c-0.259,0.228-0.407,0.464-0.448,0.71l-3.983,23.84h2.779l3.552-21.71
	c0.02-0.062,0.046-0.143,0.076-0.246c0.031-0.103,0.108-0.154,0.231-0.154h0.093c0.082,0,0.165,0.062,0.248,0.185
	c0.04,0.062,0.062,0.134,0.062,0.216l3.644,21.71h2.779L206.829,90.066z M248.978,90.066c-0.042-0.267-0.191-0.509-0.448-0.726
	c-0.258-0.216-0.551-0.324-0.88-0.324h-2.748c-0.33,0-0.623,0.113-0.881,0.339c-0.258,0.228-0.406,0.464-0.447,0.71l-3.983,23.84
	h2.778l3.552-21.71c0.021-0.062,0.047-0.143,0.077-0.246c0.031-0.103,0.107-0.154,0.231-0.154h0.093
	c0.082,0,0.164,0.062,0.247,0.185c0.041,0.062,0.062,0.134,0.062,0.216l3.645,21.71h2.779L248.978,90.066z M56.293,111.127h6.114
	v2.779h-8.862V89.202h2.748V111.127z M66.9,113.906h-2.779V89.202H66.9V113.906z M82.835,89.202c0.514,0,0.993,0.098,1.436,0.293
	s0.834,0.463,1.174,0.803c0.339,0.339,0.607,0.731,0.803,1.174c0.195,0.442,0.293,0.921,0.293,1.436v4.447
	c0,0.803-0.221,1.534-0.663,2.193c-0.444,0.659-1.015,1.143-1.714,1.451c0.761,0.289,1.384,0.762,1.868,1.42
	c0.483,0.659,0.725,1.421,0.725,2.285v5.497c0,0.515-0.098,0.994-0.292,1.436c-0.196,0.443-0.464,0.834-0.804,1.174
	c-0.34,0.339-0.73,0.607-1.173,0.803c-0.443,0.196-0.922,0.293-1.437,0.293H76.01V89.202H82.835z M82.68,99.608
	c0.412-0.186,0.69-0.51,0.835-0.973c0.143-0.463,0.216-0.87,0.216-1.219v-4.509c0-0.247-0.077-0.468-0.231-0.664
	c-0.155-0.195-0.377-0.293-0.664-0.293H78.79v7.658H82.68z M83.978,104.704c0-0.412-0.119-0.854-0.355-1.328
	c-0.237-0.474-0.562-0.803-0.973-0.988H78.79v8.74h4.229c0.309,0,0.546-0.083,0.711-0.247s0.247-0.391,0.247-0.68V104.704z
	 M91.889,91.98v7.648h5.28v2.78h-5.28v8.719h6.114v2.779h-8.894V89.202h8.894v2.779H91.889z M99.121,113.906l7.751-21.926h-7.751
	v-2.779h11.426l-7.721,21.926h7.721v2.779H99.121z M115.188,91.98v7.624h5.28v2.779h-5.28v8.744h6.114v2.779h-8.894V89.202h8.894
	v2.779H115.188z M123.221,89.202h6.299c0.618,0,1.199,0.108,1.745,0.324c0.546,0.216,1.02,0.509,1.42,0.88
	c0.402,0.371,0.716,0.818,0.942,1.343c0.227,0.525,0.34,1.097,0.34,1.714v15.996c0,0.618-0.113,1.195-0.34,1.73
	c-0.227,0.536-0.54,1.003-0.942,1.405c-0.4,0.401-0.874,0.721-1.42,0.958c-0.546,0.236-1.127,0.354-1.745,0.354h-6.299V89.202z
	 M126,91.98v19.147h3.52c0.494,0,0.896-0.155,1.205-0.463c0.309-0.309,0.463-0.71,0.463-1.205V93.463
	c0-0.474-0.154-0.839-0.463-1.097c-0.31-0.257-0.711-0.386-1.205-0.386H126z M139.183,91.98v7.624h5.28v2.779h-5.28v8.744h6.114
	v2.779h-8.894V89.202h8.894v2.779H139.183z M160.212,104.889h2.78v4.879c0,0.618-0.114,1.194-0.341,1.729
	c-0.227,0.536-0.54,1.004-0.941,1.406c-0.402,0.401-0.876,0.721-1.421,0.958c-0.546,0.236-1.127,0.355-1.744,0.355h-1.854
	c-0.618,0-1.193-0.119-1.729-0.355c-0.535-0.237-1.004-0.556-1.404-0.958c-0.402-0.401-0.722-0.87-0.958-1.406
	c-0.237-0.535-0.355-1.111-0.355-1.729V93.463c0-0.618,0.118-1.199,0.355-1.745c0.236-0.545,0.556-1.019,0.958-1.42
	c0.4-0.401,0.869-0.715,1.404-0.942c0.536-0.226,1.111-0.339,1.729-0.339h1.854c0.617,0,1.198,0.113,1.744,0.339
	c0.545,0.228,1.019,0.541,1.421,0.942c0.401,0.401,0.715,0.875,0.941,1.42c0.227,0.546,0.341,1.127,0.341,1.745v3.891h-2.78v-3.891
	c0-0.494-0.154-0.896-0.464-1.205c-0.308-0.309-0.709-0.463-1.203-0.463h-1.854c-0.494,0-0.896,0.154-1.204,0.463
	s-0.464,0.71-0.464,1.205v16.305c0,0.494,0.155,0.896,0.464,1.205s0.71,0.463,1.204,0.463h1.854c0.411,0,0.725-0.041,0.941-0.123
	c0.216-0.082,0.37-0.196,0.463-0.34s0.149-0.318,0.17-0.524s0.031-0.433,0.031-0.68v-4.879H160.212z M175.891,109.768
	c0,0.618-0.113,1.194-0.34,1.729c-0.228,0.536-0.541,1.004-0.942,1.406s-0.875,0.721-1.42,0.958
	c-0.547,0.236-1.128,0.355-1.745,0.355h-1.854c-0.617,0-1.193-0.119-1.729-0.355c-0.536-0.237-1.004-0.556-1.405-0.958
	s-0.722-0.87-0.958-1.406c-0.236-0.535-0.354-1.111-0.354-1.729V93.463c0-0.618,0.118-1.199,0.354-1.745
	c0.236-0.545,0.557-1.019,0.958-1.42s0.869-0.715,1.405-0.942c0.535-0.226,1.111-0.339,1.729-0.339h1.854
	c0.617,0,1.198,0.113,1.745,0.339c0.545,0.228,1.019,0.541,1.42,0.942s0.715,0.875,0.942,1.42c0.227,0.546,0.34,1.127,0.34,1.745
	V109.768z M173.11,93.463c0-0.494-0.154-0.896-0.463-1.205s-0.71-0.463-1.204-0.463h-1.854c-0.494,0-0.895,0.154-1.204,0.463
	c-0.309,0.309-0.463,0.71-0.463,1.205v16.305c0,0.494,0.154,0.896,0.463,1.205c0.31,0.309,0.71,0.463,1.204,0.463h1.854
	c0.494,0,0.896-0.154,1.204-0.463s0.463-0.71,0.463-1.205V93.463z M194.922,89.202l0.927,24.705h-2.78l-0.895-21.926h-0.309
	l-3.49,21.617h-2.779l-3.459-21.617h-0.309l-0.927,21.926h-2.779l0.957-24.705h5.528l2.378,17.911l2.439-17.911H194.922z
	 M220.03,113.906l-4.385-21.926h-0.154v21.926h-2.779V89.202h4.941l4.322,21.926h0.155V89.202h2.779v24.705H220.03z M227.593,89.202
	h6.3c0.617,0,1.199,0.108,1.744,0.324c0.546,0.216,1.021,0.509,1.422,0.88c0.4,0.371,0.715,0.818,0.941,1.343
	c0.227,0.525,0.34,1.097,0.34,1.714v15.996c0,0.618-0.113,1.195-0.34,1.73c-0.227,0.536-0.541,1.003-0.941,1.405
	c-0.401,0.401-0.876,0.721-1.422,0.958c-0.545,0.236-1.127,0.354-1.744,0.354h-6.3V89.202z M230.372,91.98v19.147h3.521
	c0.494,0,0.896-0.155,1.204-0.463c0.31-0.309,0.464-0.71,0.464-1.205V93.463c0-0.474-0.154-0.839-0.464-1.097
	c-0.309-0.257-0.71-0.386-1.204-0.386H230.372z M262.819,113.906v-9.203c0-0.638-0.12-1.137-0.355-1.497
	c-0.236-0.361-0.562-0.633-0.973-0.819h-3.86v11.519h-2.779V89.202h6.824c0.515,0,0.994,0.098,1.436,0.293
	c0.442,0.196,0.835,0.463,1.174,0.803c0.34,0.339,0.607,0.731,0.803,1.174c0.196,0.442,0.293,0.921,0.293,1.436v4.447
	c0,0.803-0.221,1.534-0.663,2.193s-1.014,1.143-1.714,1.451c0.762,0.289,1.385,0.762,1.868,1.42
	c0.484,0.659,0.727,1.421,0.727,2.285v9.203H262.819z M261.521,99.608c0.412-0.186,0.689-0.453,0.834-0.803
	c0.144-0.35,0.216-0.813,0.216-1.389v-4.509c0-0.289-0.098-0.52-0.293-0.695c-0.195-0.175-0.438-0.262-0.726-0.262h-3.922v7.658
	H261.521z M270.656,113.906h-2.779V89.202h2.779V113.906z M271,121.639H1v2.573h270V121.639z M112.768,143.474h3.205v1.457h-4.646
	V131.98h1.44V143.474z M121.215,132.434c-0.021-0.14-0.1-0.267-0.234-0.38c-0.135-0.113-0.289-0.17-0.462-0.17h-1.44
	c-0.173,0-0.327,0.06-0.461,0.178c-0.136,0.119-0.214,0.243-0.235,0.373l-2.088,12.498h1.457l1.861-11.381
	c0.011-0.032,0.024-0.075,0.041-0.129c0.016-0.054,0.057-0.081,0.121-0.081h0.048c0.043,0,0.086,0.033,0.131,0.097
	c0.021,0.032,0.031,0.07,0.031,0.113l1.911,11.381h1.456L121.215,132.434z M141.047,131.98v1.619h-3.223v3.794h2.769v1.458h-2.769
	v6.08h-1.456V131.98H141.047z M143.394,144.931h-1.457V131.98h1.457V144.931z M148.921,144.931v-4.825
	c0-0.334-0.063-0.595-0.187-0.785c-0.125-0.189-0.294-0.332-0.511-0.429H146.2v6.039h-1.457V131.98h3.578
	c0.27,0,0.521,0.051,0.753,0.153c0.231,0.103,0.438,0.243,0.615,0.421c0.178,0.178,0.318,0.383,0.421,0.616
	c0.103,0.232,0.153,0.482,0.153,0.752v2.331c0,0.421-0.116,0.804-0.348,1.15c-0.232,0.346-0.531,0.599-0.898,0.76
	c0.398,0.152,0.726,0.399,0.979,0.745c0.253,0.346,0.381,0.745,0.381,1.197v4.825H148.921z M148.24,137.436
	c0.216-0.098,0.362-0.237,0.438-0.421c0.075-0.183,0.113-0.426,0.113-0.728v-2.364c0-0.15-0.052-0.272-0.153-0.364
	c-0.104-0.092-0.229-0.138-0.381-0.138H146.2v4.015H148.24z M160.188,131.98l0.486,12.951h-1.457l-0.471-11.494h-0.161
	l-1.829,11.332h-1.457l-1.813-11.332h-0.161l-0.486,11.494h-1.457l0.502-12.951h2.897l1.246,9.389l1.279-9.389H160.188z
	 M123.935,144.931l-0.486-12.951h1.457l0.47,11.494h0.162l1.829-11.332h1.457l1.813,11.332h0.161l0.486-11.494h1.456l-0.501,12.951
	h-2.898l-1.246-9.39l-1.278,9.39H123.935z M135.981,70.756h-3.643c-2.925,0-5.304-2.379-5.304-5.303v-2.086h-7.396V8.428h18.465
	V6.304c0-1.15-0.936-2.086-2.086-2.086h-3.68c-1.15,0-2.087,0.936-2.087,2.086v0.456h-3.217V6.304c0-2.924,2.379-5.303,5.304-5.303
	h3.68c2.924,0,5.303,2.379,5.303,5.303v9.238h-3.217v-3.896h-7.853v46.886h-3.217v-21.02h-4.179v22.638h15.211v-3.935h3.217v9.238
	C141.284,68.377,138.905,70.756,135.981,70.756z M130.252,63.366v2.086c0,1.15,0.937,2.086,2.087,2.086h3.643
	c1.15,0,2.086-0.936,2.086-2.086v-2.086H130.252z M122.856,34.294h4.179V11.645h-4.179V34.294z M143.305,63.366h-0.369v-3.217h0.369
	c4.545,0,5.859-1.24,5.859-5.526v-13.19c0-2.052-1.864-3.921-3.911-3.921v0h-7.63v9.432c0,1.15,0.937,2.086,2.087,2.086
	c1.184,0,2.119-0.936,2.119-2.086V41.45h3.217v5.493c0,2.924-2.379,5.303-5.303,5.303c-2.958,0-5.337-2.379-5.337-5.303v-9.432
	h-2.542v-3.217h13.389c1.956,0,3.948-2,3.948-3.961V15.542c0-2.04-1.889-3.897-3.964-3.897h-2.274V8.428h2.274
	c3.825,0,7.181,3.324,7.181,7.114v14.791c0,2.156-1.124,4.201-2.792,5.553c1.656,1.332,2.755,3.362,2.755,5.546v13.19
	C152.381,60.669,149.582,63.366,143.305,63.366z M137.623,32.625h-3.217V24.81c0-2.923,2.377-5.302,5.3-5.304l0,0l0,0l0,0
	c0.001,0,0.002,0,0.004,0c2.922,0.002,5.3,2.38,5.3,5.304v5.455h-3.217V24.81c0-1.15-0.936-2.085-2.085-2.087
	c-1.15,0.001-2.085,0.937-2.085,2.087V32.625z"/>
</svg>
